<?xml version="1.0" encoding="UTF-8"?>
<!DOCTYPE svg PUBLIC "-//W3C//DTD SVG 1.1//EN" "http://www.w3.org/Graphics/SVG/1.1/DTD/svg11.dtd">
<svg xmlns="http://www.w3.org/2000/svg" version="1.1" width="512px" height="512px" style="shape-rendering:geometricPrecision; text-rendering:geometricPrecision; image-rendering:optimizeQuality; fill-rule:evenodd; clip-rule:evenodd" xmlns:xlink="http://www.w3.org/1999/xlink">
<g><path style="opacity:0.984" fill="#000000" d="M 69.5,31.5 C 141.545,31.0127 213.545,31.5127 285.5,33C 303.275,39.1076 314.441,51.2743 319,69.5C 319.5,78.1603 319.666,86.8269 319.5,95.5C 332.504,95.3334 345.504,95.5001 358.5,96C 363.428,97.9268 366.594,101.427 368,106.5C 368.168,116.517 368.668,126.517 369.5,136.5C 380.541,141.1 390.707,147.1 400,154.5C 408.256,149.287 416.756,144.454 425.5,140C 434.437,137.974 441.27,140.807 446,148.5C 457.253,167.336 468.253,186.336 479,205.5C 480.745,212.564 479.245,218.731 474.5,224C 466.662,228.753 458.662,233.253 450.5,237.5C 450.167,238.5 449.833,239.5 449.5,240.5C 450.41,251.545 450.744,262.545 450.5,273.5C 458.662,277.747 466.662,282.247 474.5,287C 480.951,295.571 481.117,304.404 475,313.5C 464.667,330.833 454.333,348.167 444,365.5C 438.972,370.952 432.806,372.785 425.5,371C 416.756,366.546 408.256,361.713 400,356.5C 390.707,363.9 380.541,369.9 369.5,374.5C 368.668,384.483 368.168,394.483 368,404.5C 366.594,409.573 363.428,413.073 358.5,415C 345.504,415.5 332.504,415.667 319.5,415.5C 324.446,442.574 315.112,462.741 291.5,476C 288.226,477.202 284.893,478.202 281.5,479C 210.833,479.667 140.167,479.667 69.5,479C 49.6667,473.833 37.1667,461.333 32,441.5C 31.3333,317.5 31.3333,193.5 32,69.5C 37.3488,49.6518 49.8488,36.9852 69.5,31.5 Z M 79.5,63.5 C 100.833,63.5 122.167,63.5 143.5,63.5C 144.496,83.8291 155.162,94.4957 175.5,95.5C 195.838,94.4957 206.504,83.8291 207.5,63.5C 228.836,63.3334 250.169,63.5 271.5,64C 278.566,64.4469 283.399,67.9469 286,74.5C 287.657,193.465 287.99,312.465 287,431.5C 285.833,440.667 280.667,445.833 271.5,447C 207.5,447.667 143.5,447.667 79.5,447C 72.4342,446.553 67.6008,443.053 65,436.5C 63.3429,317.535 63.0096,198.535 64,79.5C 65.3459,70.3224 70.5125,64.9891 79.5,63.5 Z M 319.5,127.5 C 324.833,127.5 330.167,127.5 335.5,127.5C 335.334,135.507 335.5,143.507 336,151.5C 336.936,155.207 338.769,158.374 341.5,161C 359.16,166.659 374.826,175.659 388.5,188C 394.019,190.835 399.686,191.169 405.5,189C 411.833,185.5 418.167,182 424.5,178.5C 429.959,187.25 435.292,196.084 440.5,205C 434.5,208.333 428.5,211.667 422.5,215C 417.336,218.497 414.67,223.33 414.5,229.5C 418.483,246.668 418.483,263.834 414.5,281C 414.531,287.394 417.197,292.394 422.5,296C 428.5,299.333 434.5,302.667 440.5,306C 435.292,314.916 429.959,323.75 424.5,332.5C 418.167,329 411.833,325.5 405.5,322C 399.686,319.831 394.019,320.165 388.5,323C 375.981,334.931 361.314,343.265 344.5,348C 339.851,350.455 337.017,354.288 336,359.5C 335.5,367.493 335.334,375.493 335.5,383.5C 330.167,383.5 324.833,383.5 319.5,383.5C 319.5,362.167 319.5,340.833 319.5,319.5C 353.519,317.902 374.686,300.569 383,267.5C 386.764,233.514 373.264,209.348 342.5,195C 335.093,192.133 327.426,190.966 319.5,191.5C 319.5,170.167 319.5,148.833 319.5,127.5 Z M 319.5,224.5 C 338.828,225.828 349.162,236.162 350.5,255.5C 349.162,274.838 338.828,285.172 319.5,286.5C 319.5,265.833 319.5,245.167 319.5,224.5 Z"/></g>
<g><path style="opacity:0.96" fill="#000000" d="M 137.5,191.5 C 156.778,190.61 163.278,199.276 157,217.5C 144.319,230.014 131.819,242.681 119.5,255.5C 131.819,268.319 144.319,280.986 157,293.5C 160.333,300.167 160.333,306.833 157,313.5C 150.055,320.069 142.222,321.236 133.5,317C 116.333,299.833 99.1667,282.667 82,265.5C 78.6667,258.833 78.6667,252.167 82,245.5C 100.091,226.907 118.591,208.907 137.5,191.5 Z"/></g>
<g><path style="opacity:0.96" fill="#000000" d="M 201.5,191.5 C 207.105,190.908 212.439,191.741 217.5,194C 234.667,211.167 251.833,228.333 269,245.5C 272.333,252.167 272.333,258.833 269,265.5C 251.833,282.667 234.667,299.833 217.5,317C 199.133,323.294 190.633,316.794 192,297.5C 192.667,296.167 193.333,294.833 194,293.5C 206.681,280.986 219.181,268.319 231.5,255.5C 219.181,242.681 206.681,230.014 194,217.5C 188.677,206.374 191.177,197.707 201.5,191.5 Z"/></g>
</svg>
