<?xml version="1.0" encoding="UTF-8"?>
<!DOCTYPE svg PUBLIC "-//W3C//DTD SVG 1.1//EN" "http://www.w3.org/Graphics/SVG/1.1/DTD/svg11.dtd">
<svg xmlns="http://www.w3.org/2000/svg" version="1.1" width="512px" height="512px" style="shape-rendering:geometricPrecision; text-rendering:geometricPrecision; image-rendering:optimizeQuality; fill-rule:evenodd; clip-rule:evenodd" xmlns:xlink="http://www.w3.org/1999/xlink">
<g><path style="opacity:0.936" fill="#000000" d="M 99.5,41.5 C 179.167,41.3333 258.834,41.5 338.5,42C 349.897,44.3968 357.063,51.2301 360,62.5C 360.5,102.832 360.667,143.165 360.5,183.5C 378.17,183.333 395.836,183.5 413.5,184C 422.573,186.739 428.74,192.573 432,201.5C 432.667,234.5 432.667,267.5 432,300.5C 429.084,310.415 422.584,316.582 412.5,319C 395.17,319.5 377.837,319.667 360.5,319.5C 360.667,362.501 360.5,405.501 360,448.5C 357.063,459.77 349.897,466.603 338.5,469C 258.833,469.667 179.167,469.667 99.5,469C 86.3025,466.135 79.1358,457.969 78,444.5C 77.3333,318.5 77.3333,192.5 78,66.5C 79.3251,53.0162 86.4918,44.6829 99.5,41.5 Z M 102.5,59.5 C 181.249,59.0059 259.916,59.5059 338.5,61C 340.049,62.214 341.215,63.714 342,65.5C 342.5,104.832 342.667,144.165 342.5,183.5C 336.048,183.916 329.715,183.416 323.5,182C 318.613,176.114 314.113,169.947 310,163.5C 306.211,158.692 301.378,155.525 295.5,154C 273.103,153.032 250.77,153.366 228.5,155C 221.091,158.739 216.257,164.572 214,172.5C 213.333,215.167 213.333,257.833 214,300.5C 216.942,310.443 223.442,316.609 233.5,319C 269.832,319.5 306.165,319.667 342.5,319.5C 342.667,361.501 342.5,403.501 342,445.5C 341.215,447.286 340.049,448.786 338.5,450C 259.915,451.661 181.248,451.994 102.5,451C 100.919,450.293 99.4194,449.46 98,448.5C 96.337,320.58 96.0037,192.58 97,64.5C 98.3516,62.251 100.185,60.5844 102.5,59.5 Z M 235.5,171.5 C 254.17,171.333 272.836,171.5 291.5,172C 296.824,177.124 301.324,182.957 305,189.5C 309.53,196.013 315.697,199.846 323.5,201C 352.5,201.333 381.5,201.667 410.5,202C 411.667,203.167 412.833,204.333 414,205.5C 414.667,236.167 414.667,266.833 414,297.5C 412.786,299.049 411.286,300.215 409.5,301C 351.084,301.992 292.751,301.658 234.5,300C 233.299,299.097 232.465,297.931 232,296.5C 231.333,256.167 231.333,215.833 232,175.5C 233.376,174.295 234.542,172.962 235.5,171.5 Z"/></g>
<g><path style="opacity:0.937" fill="#000000" d="M 185.5,74.5 C 208.169,74.3334 230.836,74.5 253.5,75C 260.191,76.538 262.691,80.7047 261,87.5C 260.215,89.286 259.049,90.786 257.5,92C 232.167,92.6667 206.833,92.6667 181.5,92C 176.261,87.9436 175.428,83.1103 179,77.5C 181.166,76.2685 183.333,75.2685 185.5,74.5 Z"/></g>
<g><path style="opacity:0.891" fill="#000000" d="M 285.5,75.5 C 297.039,73.9549 301.039,78.6215 297.5,89.5C 292.017,93.7604 286.85,93.4271 282,88.5C 280.539,83.3265 281.706,78.9932 285.5,75.5 Z"/></g>
<g><path style="opacity:0.916" fill="#000000" d="M 137.5,416.5 C 145.84,416.334 154.173,416.5 162.5,417C 168.443,419.83 170.276,424.33 168,430.5C 166.786,432.049 165.286,433.215 163.5,434C 154.167,434.667 144.833,434.667 135.5,434C 128.393,427.159 129.06,421.326 137.5,416.5 Z"/></g>
<g><path style="opacity:0.917" fill="#000000" d="M 203.5,416.5 C 212.915,416.083 222.248,416.583 231.5,418C 236.998,423.682 236.665,429.015 230.5,434C 221.167,434.667 211.833,434.667 202.5,434C 196.684,430.238 195.518,425.405 199,419.5C 200.652,418.601 202.152,417.601 203.5,416.5 Z"/></g>
<g><path style="opacity:0.917" fill="#000000" d="M 270.5,416.5 C 278.84,416.334 287.173,416.5 295.5,417C 301.092,419.402 302.925,423.569 301,429.5C 300.167,431.667 298.667,433.167 296.5,434C 287.167,434.667 277.833,434.667 268.5,434C 263.391,430.634 262.224,426.134 265,420.5C 266.5,418.531 268.333,417.198 270.5,416.5 Z"/></g>
</svg>
