<?xml version="1.0" encoding="UTF-8"?>
<!DOCTYPE svg PUBLIC "-//W3C//DTD SVG 1.1//EN" "http://www.w3.org/Graphics/SVG/1.1/DTD/svg11.dtd">
<svg xmlns="http://www.w3.org/2000/svg" version="1.1" width="512px" height="512px" style="shape-rendering:geometricPrecision; text-rendering:geometricPrecision; image-rendering:optimizeQuality; fill-rule:evenodd; clip-rule:evenodd" xmlns:xlink="http://www.w3.org/1999/xlink">
<g><path style="opacity:0.987" fill="#000000" d="M 160.5,-0.5 C 190.5,-0.5 220.5,-0.5 250.5,-0.5C 252.134,0.971672 253.634,2.63834 255,4.5C 255.5,16.1619 255.667,27.8286 255.5,39.5C 271.503,39.3334 287.503,39.5001 303.5,40C 314.667,43.1667 321.833,50.3333 325,61.5C 325.5,138.166 325.667,214.833 325.5,291.5C 378.423,298.923 411.256,328.589 424,380.5C 431.011,430.628 413.511,469.461 371.5,497C 358.521,504.157 344.854,508.991 330.5,511.5C 320.5,511.5 310.5,511.5 300.5,511.5C 249.106,501.44 217.772,470.773 206.5,419.5C 173.498,419.667 140.498,419.5 107.5,419C 96.3333,415.833 89.1667,408.667 86,397.5C 85.3333,285.5 85.3333,173.5 86,61.5C 89.1667,50.3333 96.3333,43.1667 107.5,40C 123.497,39.5001 139.497,39.3334 155.5,39.5C 155.333,27.8286 155.5,16.1619 156,4.5C 157.366,2.63834 158.866,0.971672 160.5,-0.5 Z M 175.5,19.5 C 195.5,19.5 215.5,19.5 235.5,19.5C 235.5,26.1667 235.5,32.8333 235.5,39.5C 215.5,39.5 195.5,39.5 175.5,39.5C 175.5,32.8333 175.5,26.1667 175.5,19.5 Z M 115.5,59.5 C 175.501,59.3333 235.501,59.5 295.5,60C 301.333,60.5 304.5,63.6667 305,69.5C 305.5,129.499 305.667,189.499 305.5,249.5C 238.833,249.5 172.167,249.5 105.5,249.5C 105.333,189.499 105.5,129.499 106,69.5C 106.679,63.6569 109.846,60.3236 115.5,59.5 Z M 314.5,311.5 C 358.9,314.08 388.067,336.413 402,378.5C 410.871,425.584 394.371,460.418 352.5,483C 313.368,498.107 278.868,490.94 249,461.5C 226.254,434.096 220.587,403.429 232,369.5C 247.808,333.524 275.308,314.191 314.5,311.5 Z"/></g>
<g><path style="opacity:0.977" fill="#000000" d="M 309.5,336.5 C 318.822,334.251 325.655,337.251 330,345.5C 330.667,366.167 330.667,386.833 330,407.5C 325.652,415.915 318.819,418.748 309.5,416C 305.333,414.5 302.5,411.667 301,407.5C 300.333,386.833 300.333,366.167 301,345.5C 302.688,341.315 305.521,338.315 309.5,336.5 Z"/></g>
<g><path style="opacity:0.931" fill="#000000" d="M 309.5,436.5 C 325.654,434.487 332.487,441.487 330,457.5C 325.652,465.915 318.819,468.748 309.5,466C 301.085,461.652 298.252,454.819 301,445.5C 302.688,441.315 305.521,438.315 309.5,436.5 Z"/></g>
</svg>
