<?xml version="1.0" encoding="UTF-8"?>
<!DOCTYPE svg PUBLIC "-//W3C//DTD SVG 1.1//EN" "http://www.w3.org/Graphics/SVG/1.1/DTD/svg11.dtd">
<svg xmlns="http://www.w3.org/2000/svg" version="1.1" width="512px" height="512px" style="shape-rendering:geometricPrecision; text-rendering:geometricPrecision; image-rendering:optimizeQuality; fill-rule:evenodd; clip-rule:evenodd" xmlns:xlink="http://www.w3.org/1999/xlink">
<g><path style="opacity:0.974" fill="#000000" d="M 107.5,31.5 C 181.545,31.0124 255.545,31.5124 329.5,33C 348.594,39.4287 359.761,52.5954 363,72.5C 363.667,87.1667 363.667,101.833 363,116.5C 357.074,120.421 351.741,125.088 347,130.5C 346.94,110.124 346.273,89.7906 345,69.5C 341.43,58.9307 334.263,52.0974 323.5,49C 310.201,47.5011 296.867,47.1678 283.5,48C 280.813,54.5433 277.979,61.0433 275,67.5C 273.062,70.1059 270.562,71.9392 267.5,73C 233.833,73.6667 200.167,73.6667 166.5,73C 163.438,71.9392 160.938,70.1059 159,67.5C 155.876,61.292 153.042,54.9587 150.5,48.5C 136.809,47.1381 123.142,47.3048 109.5,49C 97.5675,52.599 90.0675,60.4323 87,72.5C 86.5,185.166 86.3333,297.833 86.5,410.5C 173.167,410.5 259.833,410.5 346.5,410.5C 346.5,397.167 346.5,383.833 346.5,370.5C 352.203,370.625 357.87,370.292 363.5,369.5C 363.942,394.538 363.442,419.538 362,444.5C 356.902,461.264 346.069,472.431 329.5,478C 255.544,479.654 181.544,479.988 107.5,479C 87.2222,473.722 74.7222,460.889 70,440.5C 69.3333,317.167 69.3333,193.833 70,70.5C 74.9059,50.0958 87.4059,37.0958 107.5,31.5 Z M 182.5,437.5 C 205.169,437.333 227.836,437.5 250.5,438C 257.327,443.184 256.994,447.851 249.5,452C 227.167,452.667 204.833,452.667 182.5,452C 175.899,447.171 175.899,442.338 182.5,437.5 Z"/></g>
<g><path style="opacity:0.973" fill="#000000" d="M 405.5,117.5 C 413.339,118.18 415.839,122.18 413,129.5C 396.051,148.332 394.051,168.665 407,190.5C 415.052,198.949 422.385,207.949 429,217.5C 448.216,254.842 445.216,290.175 420,323.5C 391.011,354.039 356.511,362.539 316.5,349C 279.315,331.822 260.315,302.655 259.5,261.5C 262.193,222.293 275.86,187.459 300.5,157C 304.174,154.915 307.507,155.415 310.5,158.5C 311.604,167.101 314.604,174.934 319.5,182C 328.922,187.172 336.422,185.005 342,175.5C 348.822,140.168 369.988,120.835 405.5,117.5 Z M 359.5,212.5 C 362.044,212.104 364.211,212.771 366,214.5C 378.739,230.309 388.073,247.976 394,267.5C 396.512,299.494 381.845,317.161 350,320.5C 318.595,316.677 303.929,299.01 306,267.5C 307.964,258.736 312.13,251.236 318.5,245C 319.833,244.333 321.167,244.333 322.5,245C 324.071,248.071 325.571,251.238 327,254.5C 339,263.152 347.667,260.486 353,246.5C 355.008,235.062 357.175,223.728 359.5,212.5 Z"/></g>
</svg>
