<?xml version="1.0" encoding="UTF-8"?>
<!DOCTYPE svg PUBLIC "-//W3C//DTD SVG 1.1//EN" "http://www.w3.org/Graphics/SVG/1.1/DTD/svg11.dtd">
<svg xmlns="http://www.w3.org/2000/svg" version="1.1" width="512px" height="512px" style="shape-rendering:geometricPrecision; text-rendering:geometricPrecision; image-rendering:optimizeQuality; fill-rule:evenodd; clip-rule:evenodd" xmlns:xlink="http://www.w3.org/1999/xlink">
<g><path style="opacity:0.947" fill="#000000" d="M 32.5,-0.5 C 112.833,-0.5 193.167,-0.5 273.5,-0.5C 292.62,5.46692 303.787,18.4669 307,38.5C 307.5,53.8297 307.667,69.163 307.5,84.5C 316.2,85.3653 321.7,90.032 324,98.5C 324.333,103.5 324.667,108.5 325,113.5C 325.935,116.102 327.768,117.602 330.5,118C 365.833,118.667 401.167,118.667 436.5,118C 439.232,117.602 441.065,116.102 442,113.5C 442.333,108.5 442.667,103.5 443,98.5C 444.763,91.738 448.93,87.238 455.5,85C 470.167,84.3333 484.833,84.3333 499.5,85C 504.932,86.9363 508.932,90.4363 511.5,95.5C 511.5,230.5 511.5,365.5 511.5,500.5C 508.833,505.167 505.167,508.833 500.5,511.5C 422.5,511.5 344.5,511.5 266.5,511.5C 259.211,508.205 255.544,502.538 255.5,494.5C 181.499,494.667 107.499,494.5 33.5,494C 16.084,489.415 4.75062,478.582 -0.5,461.5C -0.5,318.5 -0.5,175.5 -0.5,32.5C 4.83333,15.8333 15.8333,4.83333 32.5,-0.5 Z M 35.5,17.5 C 113.834,17.3333 192.167,17.5 270.5,18C 279.667,20.5 285.5,26.3333 288,35.5C 289.44,51.7764 289.94,68.1097 289.5,84.5C 284.167,84.5 278.833,84.5 273.5,84.5C 273.903,71.115 273.403,57.7817 272,44.5C 269.833,39.6667 266.333,36.1667 261.5,34C 248.097,33.056 234.764,33.3893 221.5,35C 218.333,36.8333 215.833,39.3333 214,42.5C 212.796,48.7528 212.129,55.0862 212,61.5C 210.74,64.4281 208.573,66.2614 205.5,67C 170.5,67.6667 135.5,67.6667 100.5,67C 98.1523,66.6541 96.3189,65.4875 95,63.5C 93.7957,57.2472 93.129,50.9138 93,44.5C 90.8333,39.6667 87.3333,36.1667 82.5,34C 69.8333,33.3333 57.1667,33.3333 44.5,34C 39.6667,36.1667 36.1667,39.6667 34,44.5C 33.3333,179.167 33.3333,313.833 34,448.5C 35.8333,454.333 39.6667,458.167 45.5,460C 115.499,460.5 185.499,460.667 255.5,460.5C 255.5,465.833 255.5,471.167 255.5,476.5C 182.499,476.667 109.499,476.5 36.5,476C 28.5802,473.752 22.7468,468.919 19,461.5C 17.3382,319.556 17.0049,177.556 18,35.5C 21.3531,26.9815 27.1865,20.9815 35.5,17.5 Z M 51.5,51.5 C 59.5,51.5 67.5,51.5 75.5,51.5C 73.9214,65.3193 78.9214,75.8193 90.5,83C 92.7885,83.8221 95.1218,84.4888 97.5,85C 134.5,85.6667 171.5,85.6667 208.5,85C 225.133,80.1613 232.467,68.9946 230.5,51.5C 238.833,51.5 247.167,51.5 255.5,51.5C 255.5,181.833 255.5,312.167 255.5,442.5C 187.5,442.5 119.5,442.5 51.5,442.5C 51.5,312.167 51.5,181.833 51.5,51.5 Z M 273.5,102.5 C 284.5,102.5 295.5,102.5 306.5,102.5C 303.876,119.444 310.543,130.611 326.5,136C 364.5,136.667 402.5,136.667 440.5,136C 456.457,130.611 463.124,119.444 460.5,102.5C 471.5,102.5 482.5,102.5 493.5,102.5C 493.5,232.833 493.5,363.167 493.5,493.5C 420.167,493.5 346.833,493.5 273.5,493.5C 273.5,363.167 273.5,232.833 273.5,102.5 Z M 160.5,221.5 C 161.496,221.414 162.329,221.748 163,222.5C 166.042,227.419 169.209,232.252 172.5,237C 179.419,238.095 186.419,238.929 193.5,239.5C 191.105,250.309 188.771,261.142 186.5,272C 189.239,278.974 192.906,285.474 197.5,291.5C 189.75,294.608 181.75,297.108 173.5,299C 172.667,299.833 171.833,300.667 171,301.5C 168.618,310.409 166.618,319.409 165,328.5C 157.5,319 150,309.5 142.5,300C 140.487,298.743 138.321,297.909 136,297.5C 128.547,299.575 121.047,301.075 113.5,302C 115.877,292.449 117.877,282.782 119.5,273C 117.175,261.542 115.175,250.042 113.5,238.5C 125.171,238.667 136.838,238.5 148.5,238C 149.931,237.535 151.097,236.701 152,235.5C 155.107,230.944 157.94,226.277 160.5,221.5 Z"/></g>
<g><path style="opacity:0.897" fill="#000000" d="M 114.5,33.5 C 120.952,33.0845 127.285,33.5845 133.5,35C 139.078,45.9885 135.578,51.4885 123,51.5C 112.387,52.2158 108.387,47.5492 111,37.5C 112.376,36.2949 113.542,34.9616 114.5,33.5 Z"/></g>
<g><path style="opacity:0.919" fill="#000000" d="M 157.5,33.5 C 168.838,33.3335 180.172,33.5001 191.5,34C 198.525,40.5486 197.858,46.2152 189.5,51C 179.5,51.6667 169.5,51.6667 159.5,51C 152.371,47.6042 150.871,42.4375 155,35.5C 155.995,34.9341 156.828,34.2674 157.5,33.5 Z"/></g>
<g><path style="opacity:0.939" fill="#000000" d="M 157.5,127.5 C 160.187,127.336 162.854,127.503 165.5,128C 167.667,128.833 169.167,130.333 170,132.5C 170.333,155.5 170.667,178.5 171,201.5C 175.043,207.753 179.21,213.92 183.5,220C 189.5,220.667 195.5,220.667 201.5,220C 209.53,211.636 217.863,203.636 226.5,196C 237.384,195.234 240.884,200.067 237,210.5C 229,218.5 221,226.5 213,234.5C 210.309,246.12 207.809,257.786 205.5,269.5C 209.876,277.384 214.876,284.884 220.5,292C 226.361,294.18 231.861,297.013 237,300.5C 239.329,305.363 238.829,309.863 235.5,314C 233.801,314.958 231.967,315.458 230,315.5C 223.661,313.665 217.661,310.999 212,307.5C 203.679,310.205 195.179,312.205 186.5,313.5C 184.169,325.487 181.836,337.487 179.5,349.5C 182.296,363.478 184.962,377.478 187.5,391.5C 187.313,397.354 184.313,400.687 178.5,401.5C 175.634,400.818 173.134,399.484 171,397.5C 167.539,382.529 164.206,367.529 161,352.5C 151.473,341.273 142.306,329.773 133.5,318C 125.069,318.855 116.736,320.521 108.5,323C 102.531,327.967 96.8648,333.301 91.5,339C 82.985,343.74 77.6517,341.407 75.5,332C 75.6251,330.373 76.1251,328.873 77,327.5C 82.3333,322.167 87.6667,316.833 93,311.5C 95.8982,298.508 98.7315,285.508 101.5,272.5C 98.8103,260.552 96.3103,248.552 94,236.5C 93.3333,235.167 92.6667,233.833 92,232.5C 86.9459,227.446 81.9459,222.446 77,217.5C 74.5,206.667 78.6667,202.5 89.5,205C 95.1349,209.633 100.468,214.633 105.5,220C 117.181,220.833 128.848,220.666 140.5,219.5C 144.333,213.833 148.167,208.167 152,202.5C 152.333,179.5 152.667,156.5 153,133.5C 153.599,130.746 155.099,128.746 157.5,127.5 Z M 160.5,221.5 C 157.94,226.277 155.107,230.944 152,235.5C 151.097,236.701 149.931,237.535 148.5,238C 136.838,238.5 125.171,238.667 113.5,238.5C 115.175,250.042 117.175,261.542 119.5,273C 117.877,282.782 115.877,292.449 113.5,302C 121.047,301.075 128.547,299.575 136,297.5C 138.321,297.909 140.487,298.743 142.5,300C 150,309.5 157.5,319 165,328.5C 166.618,319.409 168.618,310.409 171,301.5C 171.833,300.667 172.667,299.833 173.5,299C 181.75,297.108 189.75,294.608 197.5,291.5C 192.906,285.474 189.239,278.974 186.5,272C 188.771,261.142 191.105,250.309 193.5,239.5C 186.419,238.929 179.419,238.095 172.5,237C 169.209,232.252 166.042,227.419 163,222.5C 162.329,221.748 161.496,221.414 160.5,221.5 Z"/></g>
<g><path style="opacity:0.906" fill="#000000" d="M 321.5,152.5 C 331.415,153.246 334.582,158.246 331,167.5C 324.833,173.667 318.667,179.833 312.5,186C 306.127,189.112 301.293,187.612 298,181.5C 297.416,178.743 297.75,176.077 299,173.5C 306.118,165.874 313.618,158.874 321.5,152.5 Z"/></g>
<g><path style="opacity:0.922" fill="#000000" d="M 372.5,152.5 C 382.375,153.214 385.542,158.214 382,167.5C 358.833,190.667 335.667,213.833 312.5,237C 308.619,239.881 304.619,239.881 300.5,237C 297.274,233.193 296.774,229.027 299,224.5C 323.115,199.883 347.615,175.883 372.5,152.5 Z"/></g>
</svg>
