<?xml version="1.0" encoding="UTF-8"?>
<!DOCTYPE svg PUBLIC "-//W3C//DTD SVG 1.1//EN" "http://www.w3.org/Graphics/SVG/1.1/DTD/svg11.dtd">
<svg xmlns="http://www.w3.org/2000/svg" version="1.1" width="512px" height="512px" style="shape-rendering:geometricPrecision; text-rendering:geometricPrecision; image-rendering:optimizeQuality; fill-rule:evenodd; clip-rule:evenodd" xmlns:xlink="http://www.w3.org/1999/xlink">
<g><path style="opacity:0.952" fill="#000000" d="M 122.5,-0.5 C 211.167,-0.5 299.833,-0.5 388.5,-0.5C 399.095,2.97932 405.262,10.3127 407,21.5C 407.667,177.5 407.667,333.5 407,489.5C 405.262,500.687 399.095,508.021 388.5,511.5C 299.833,511.5 211.167,511.5 122.5,511.5C 111.905,508.021 105.738,500.687 104,489.5C 103.333,333.5 103.333,177.5 104,21.5C 105.738,10.3127 111.905,2.97932 122.5,-0.5 Z M 129.5,13.5 C 154.167,13.5 178.833,13.5 203.5,13.5C 205.806,22.586 208.806,31.4194 212.5,40C 226.743,41.1508 241.077,41.6508 255.5,41.5C 269.923,41.6508 284.257,41.1508 298.5,40C 302.194,31.4194 305.194,22.586 307.5,13.5C 332.169,13.3334 356.836,13.5 381.5,14C 387.215,14.715 390.715,17.8816 392,23.5C 392.667,178.167 392.667,332.833 392,487.5C 390.715,493.118 387.215,496.285 381.5,497C 297.5,497.667 213.5,497.667 129.5,497C 123.785,496.285 120.285,493.118 119,487.5C 118.333,332.833 118.333,178.167 119,23.5C 120.459,17.8713 123.959,14.538 129.5,13.5 Z M 219.5,13.5 C 243.5,13.5 267.5,13.5 291.5,13.5C 290.293,17.7862 289.293,22.1195 288.5,26.5C 266.5,26.5 244.5,26.5 222.5,26.5C 221.707,22.1195 220.707,17.7862 219.5,13.5 Z M 258.5,207.5 C 259.665,246.331 259.831,285.331 259,324.5C 245.634,311.466 231.967,298.799 218,286.5C 217.333,272.833 217.333,259.167 218,245.5C 231.396,232.601 244.896,219.934 258.5,207.5 Z M 175.5,249.5 C 184.5,249.5 193.5,249.5 202.5,249.5C 202.5,260.5 202.5,271.5 202.5,282.5C 193.5,282.5 184.5,282.5 175.5,282.5C 175.5,271.5 175.5,260.5 175.5,249.5 Z M 274.5,254.5 C 278.183,255.174 281.516,256.674 284.5,259C 288.677,263.954 288.343,268.62 283.5,273C 280.852,275.05 277.852,276.216 274.5,276.5C 274.5,269.167 274.5,261.833 274.5,254.5 Z"/></g>
<g><path style="opacity:0.929" fill="#000000" d="M 255.5,190.5 C 260.511,190.334 265.511,190.501 270.5,191C 272.333,191.5 273.5,192.667 274,194.5C 274.5,209.496 274.667,224.496 274.5,239.5C 295.488,242.288 304.322,253.955 301,274.5C 295.384,285.065 286.55,290.731 274.5,291.5C 274.667,306.837 274.5,322.17 274,337.5C 273.5,339.333 272.333,340.5 270.5,341C 264.719,341.903 259.053,341.57 253.5,340C 238.167,326 222.833,312 207.5,298C 193.833,297.667 180.167,297.333 166.5,297C 163.227,296.06 161.394,293.893 161,290.5C 160.333,273.833 160.333,257.167 161,240.5C 161.625,237.388 163.458,235.555 166.5,235C 180.167,234.667 193.833,234.333 207.5,234C 223.396,219.265 239.396,204.765 255.5,190.5 Z M 258.5,207.5 C 244.896,219.934 231.396,232.601 218,245.5C 217.333,259.167 217.333,272.833 218,286.5C 231.967,298.799 245.634,311.466 259,324.5C 259.831,285.331 259.665,246.331 258.5,207.5 Z M 175.5,249.5 C 175.5,260.5 175.5,271.5 175.5,282.5C 184.5,282.5 193.5,282.5 202.5,282.5C 202.5,271.5 202.5,260.5 202.5,249.5C 193.5,249.5 184.5,249.5 175.5,249.5 Z M 274.5,254.5 C 274.5,261.833 274.5,269.167 274.5,276.5C 277.852,276.216 280.852,275.05 283.5,273C 288.343,268.62 288.677,263.954 284.5,259C 281.516,256.674 278.183,255.174 274.5,254.5 Z"/></g>
<g><path style="opacity:0.914" fill="#000000" d="M 319.5,209.5 C 333.799,216.028 342.965,227.028 347,242.5C 354.618,269.771 348.785,293.604 329.5,314C 326.726,316.054 323.726,317.554 320.5,318.5C 314.369,317.871 311.869,314.538 313,308.5C 319.018,303.146 324.352,297.146 329,290.5C 338.381,269.557 336.715,249.557 324,230.5C 319.982,227.479 316.316,224.146 313,220.5C 311.614,214.592 313.78,210.925 319.5,209.5 Z"/></g>
<g><path style="opacity:0.913" fill="#000000" d="M 299.5,223.5 C 307.04,224.865 312.873,228.865 317,235.5C 326.848,253.261 327.515,271.261 319,289.5C 316.252,294.252 312.752,298.419 308.5,302C 298.473,307.55 293.973,304.717 295,293.5C 308.585,282.524 312.918,268.524 308,251.5C 306.587,248.339 304.92,245.339 303,242.5C 300.054,240.044 297.387,237.377 295,234.5C 293.391,229.391 294.891,225.725 299.5,223.5 Z"/></g>
<g><path style="opacity:0.918" fill="#000000" d="M 222.5,469.5 C 244.503,469.333 266.503,469.5 288.5,470C 292.496,470.836 294.496,473.336 294.5,477.5C 294.06,480.214 292.726,482.38 290.5,484C 267.167,484.667 243.833,484.667 220.5,484C 215.003,478.185 215.67,473.351 222.5,469.5 Z"/></g>
</svg>
